<svg xmlns="http://www.w3.org/2000/svg" version="1.1" xmlns:xlink="http://www.w3.org/1999/xlink" xmlns:svgjs="http://svgjs.dev/svgjs" width="24" height="24"><svg width="24" height="24" xmlns="http://www.w3.org/2000/svg" version="1.1" xml:space="preserve">
 <g>
  <title>Layer 1</title>
  <path d="m17.96114,4.27085a5.68814,5.68814 0 0 1 0.83261,2.07885a0.66715,0.66715 0 1 0 1.32363,-0.17613c-0.09207,-0.6805 -0.39362,-1.65721 -1.04343,-2.63925a5.76153,5.76153 0 0 0 -1.95609,-1.85468a0.66715,0.66715 0 0 0 -0.66182,1.15818c0.61645,0.35226 1.11414,0.84061 1.5051,1.43304l0,-0.00001zm-13.63793,14.95222c0.57375,0.53506 1.1475,0.85662 1.55847,1.0074a0.66715,0.66715 0 0 0 0.46167,-1.25158a3.58928,3.58928 0 0 1 -1.11014,-0.7312c-0.70451,-0.65915 -1.12215,-1.52111 -1.12215,-2.64593a0.66715,0.66715 0 1 0 -1.3343,0c0,1.51577 0.58309,2.72198 1.54646,3.6213l-0.00001,0.00001zm17.00571,-14.95355a5.78288,5.78288 0 0 1 0.21616,2.46046a0.66715,0.66715 0 1 0 1.31829,0.20548a7.06114,7.06114 0 0 0 -0.26686,-3.08358c-0.27487,-0.83394 -0.72453,-1.5518 -1.37567,-2.10286a0.66715,0.66715 0 0 0 -0.86196,1.01941c0.44966,0.38028 0.76856,0.88865 0.97004,1.50109z" fill="#000000" data-original="#000000" id="SvgjsPath1027"></path>
  <rect fill="#96bc71" x="1.46024" y="1.97154" width="9" height="9" id="SvgjsRect1026" transform="matrix(1.08857, 0.439812, -0.439812, 1.08857, 3.48691, -2.7003)"></rect>
  <path d="m4.76642,1.20354l7.72723,2.81248c0.3034,0.11043 0.45988,0.446 0.34945,0.7494l-2.81248,7.72723a0.54832,0.54832 0 0 1 -0.7494,0.34945l-7.72723,-2.81248a0.54832,0.54832 0 0 1 -0.34945,-0.7494l2.81248,-7.72723c0.11043,-0.3034 0.446,-0.45988 0.7494,-0.34945zm-4.66514,7.67513c-0.33249,0.9135 0.13766,1.92172 1.05116,2.25421l7.72723,2.81248c0.9135,0.33249 1.92172,-0.13766 2.25421,-1.05116l2.81248,-7.72723c0.33249,-0.9135 -0.13766,-1.92172 -1.05116,-2.25421l-7.72723,-2.81248c-0.9135,-0.33249 -1.92172,0.13766 -2.25421,1.05116l-2.81248,7.72723z" fill="#000000" data-original="#000000" id="SvgjsPath1025"></path>
  <circle cx="4.6929" cy="3.91751" r="1" fill="#000000" data-original="#000000" id="SvgjsCircle1024" transform="matrix(1.10326, 0.401554, -0.401554, 1.10326, 2.01601, -2.19329)"></circle>
  <circle cx="3.32482" cy="7.67628" r="1" fill="#000000" data-original="#000000" id="SvgjsCircle1023" transform="matrix(1.10326, 0.401554, -0.401554, 1.10326, 3.42849, -1.37779)"></circle>
  <circle cx="7.08359" cy="9.04436" r="1" fill="#000000" data-original="#000000" id="SvgjsCircle1022" transform="matrix(1.10326, 0.401554, -0.401554, 1.10326, 4.24399, -2.79027)"></circle>
  <circle cx="8.45167" cy="5.28559" r="1" fill="#000000" data-original="#000000" id="SvgjsCircle1021" transform="matrix(1.10326, 0.401554, -0.401554, 1.10326, 2.83151, -3.60577)"></circle>
  <rect fill="#96bc71" x="11.62969" y="13.36946" width="9" height="9" id="SvgjsRect1020" transform="matrix(0.753609, 0.898116, -0.898116, 0.753609, 20.4972, -11.3491)"></rect>
  <path d="m17.41036,10.2768l5.28047,6.28856c0.20733,0.24691 0.17523,0.61526 -0.07168,0.82258l-6.28856,5.28047a0.3747,0.3747 0 0 1 -0.82258,-0.07168l-5.28047,-6.28856a0.3747,0.3747 0 0 1 0.07168,-0.82258l6.28856,-5.28047c0.24691,-0.20733 0.61526,-0.17523 0.82258,0.07168zm-7.86506,4.31094c-0.74342,0.62425 -0.83986,1.73094 -0.21561,2.47436l5.28047,6.28856c0.62425,0.74342 1.73094,0.83986 2.47436,0.21561l6.28856,-5.28047c0.74342,-0.62425 0.83986,-1.73094 0.21561,-2.47436l-5.28047,-6.28856c-0.62425,-0.74342 -1.73094,-0.83986 -2.47436,-0.21561l-6.28856,5.28047z" fill="#000000" data-original="#000000" id="SvgjsPath1019"></path>
  <circle cx="16.25159" cy="14.90921" r="1" fill="#000000" data-original="#000000" id="SvgjsCircle1018" transform="matrix(0.753922, 0.897852, -0.897852, 0.753922, 17.8809, -12.6987)"></circle>
  <path d="m15.27347,20.49423a0.75392,0.75392 0 1 0 1.7957,-1.50784a0.75392,0.75392 0 0 0 -1.7957,1.50784z" fill="#000000" data-original="#000000" id="SvgjsPath1017"></path>
 </g>

</svg><style>@media (prefers-color-scheme: light) { :root { filter: none; } }
@media (prefers-color-scheme: dark) { :root { filter: none; } }
</style></svg>